# xmcd CD database file
#
# Track frame offsets:
#	150
#	24450
#	49895
#	73132
#	91527
#	115680
#	132777
#	150067
#	171505
#	189865
#	213687
#	231910
#
# Disc length: 3417 seconds
#
# Revision: 0
# Processed by: cddbd v1.4PL0 Copyright (c) Steve Scherf et al.
# Submitted via: CDex 1.50Beta3
#
DISCID=970d570c
DTITLE=John Labelle - if you see her...
DYEAR=1996
DGENRE=Jazz
TTITLE0=I Thought About You
TTITLE1=The Girl From Ipanema
TTITLE2=Someone To Watch Over Me
TTITLE3=Our Love is Here to Stay
TTITLE4=If You See Her
TTITLE5=It Had To Be You
TTITLE6=Real Live Girl
TTITLE7=Tangerine
TTITLE8=Honeysuckle Rose
TTITLE9=Embraceable You
TTITLE10=My Baby Just Cares For Me
TTITLE11=I Don't Stand A Ghost Of A Chance With You
EXTD=YEAR: 1996
EXTT0=
EXTT1=
EXTT2=
EXTT3=
EXTT4=
EXTT5=
EXTT6=
EXTT7=
EXTT8=
EXTT9=
EXTT10=
EXTT11=
PLAYORDER=
